<?xml version="1.0" standalone="no"?>
<!DOCTYPE svg PUBLIC "-//W3C//DTD SVG 20010904//EN"
 "http://www.w3.org/TR/2001/REC-SVG-20010904/DTD/svg10.dtd">
<svg version="1.0" xmlns="http://www.w3.org/2000/svg"
 width="508.000000pt" height="667.000000pt" viewBox="0 0 508.000000 667.000000"
 preserveAspectRatio="xMidYMid meet">

<g transform="translate(0.000000,667.000000) scale(0.100000,-0.100000)"
fill="#000000" stroke="none">
<path d="M4697 6656 c-72 -20 -127 -65 -162 -132 l-30 -58 3 -465 c2 -256 12
-1386 22 -2511 10 -1125 17 -2046 16 -2047 -2 -2 -130 86 -287 195 l-284 198
-36 112 c-59 180 -89 219 -269 344 -189 131 -410 226 -682 293 l-138 33 -227
158 c-126 87 -286 199 -358 249 l-130 91 2 43 c4 80 32 142 92 201 46 46 70
60 136 83 178 61 311 71 485 38 128 -25 218 -72 295 -151 53 -57 90 -123 141
-255 11 -27 25 -50 32 -50 19 0 377 390 398 433 44 91 25 207 -45 285 -39 43
-205 159 -286 199 -115 57 -280 109 -430 133 -122 20 -439 20 -563 0 -108 -18
-314 -89 -425 -148 -151 -80 -313 -217 -392 -332 -22 -31 -44 -54 -51 -51 -7
3 -218 148 -470 323 l-457 318 129 6 c71 4 350 8 619 9 270 1 684 5 920 10
378 7 440 11 515 28 234 56 420 155 587 314 185 178 306 392 359 638 25 117
25 352 0 470 -106 504 -504 885 -1015 971 -70 12 -745 12 -1881 0 l-615 -6
-55 -31 c-63 -35 -114 -101 -127 -166 -6 -26 0 -1151 15 -2803 19 -2287 26
-2769 37 -2810 18 -62 62 -116 123 -152 38 -23 58 -27 112 -27 36 1 83 0 105
0 22 -1 573 -1 1225 0 1058 1 1198 3 1310 18 238 32 358 69 546 168 151 80
241 163 339 313 45 68 74 104 83 100 25 -9 667 -458 702 -490 59 -55 97 -70
180 -70 90 0 139 22 193 86 72 84 69 -176 41 2907 -15 1735 -28 2791 -35 2814
-33 124 -185 209 -312 174z m-1985 -514 c495 -134 735 -613 517 -1033 -79
-152 -241 -294 -409 -358 -160 -62 -140 -61 -1243 -72 -555 -5 -1012 -7 -1015
-4 -6 5 -22 1466 -16 1473 4 6 1528 20 1819 17 237 -2 279 -5 347 -23z m-1702
-2873 l418 -291 7 -62 c15 -141 73 -253 199 -384 138 -143 247 -207 523 -308
98 -36 279 -94 403 -128 l225 -62 267 -185 267 -184 1 -61 c1 -130 -61 -230
-183 -298 -97 -54 -156 -67 -312 -73 -289 -9 -2230 -41 -2235 -36 -3 2 -9 538
-15 1189 -8 968 -8 1183 3 1179 7 -2 201 -136 432 -296z"/>
<path d="M3247 2931 c-92 -95 -106 -139 -66 -211 27 -47 66 -70 119 -70 83 0
150 75 137 154 -5 31 -104 195 -118 196 -3 0 -36 -31 -72 -69z"/>
</g>
</svg>
